{"glyphs":{"0":{"ha":814,"x_min":35,"x_max":780,"o":"m 407 776 q 383 776 407 776 q 336 743 359 776 q 306 655 306 702 l 306 288 q 336 199 306 241 q 407 167 359 167 q 479 199 456 167 q 509 288 509 241 l 509 655 q 479 743 509 702 q 407 776 456 776 m 399 -27 q 209 5 304 -27 q 35 342 35 90 l 35 601 q 209 937 35 852 q 399 970 304 970 l 416 970 q 606 937 511 970 q 780 601 780 852 l 780 342 q 606 5 780 90 q 416 -27 511 -27 l 399 -27 z "},"1":{"ha":407,"x_min":34,"x_max":373,"o":"m 110 0 l 110 648 l 34 648 l 34 882 l 373 949 l 373 0 l 110 0 z "},"2":{"ha":814,"x_min":34,"x_max":780,"o":"m 509 655 q 479 743 509 702 q 407 776 456 776 q 336 743 359 776 q 310 688 317 717 l 37 715 q 209 937 58 863 q 399 970 304 970 l 416 970 q 606 937 511 970 q 780 669 780 852 q 475 228 780 475 l 780 228 l 780 0 l 34 0 l 34 160 q 509 655 509 503 z "},"3":{"ha":814,"x_min":35,"x_max":780,"o":"m 312 369 l 312 574 l 313 574 q 482 604 456 574 q 509 675 509 634 q 482 746 509 715 q 407 776 456 776 q 332 746 359 776 q 306 678 307 717 l 35 678 q 209 937 36 853 q 399 970 304 970 l 416 970 q 606 937 511 970 q 780 675 780 852 q 694 471 780 550 q 780 268 780 393 q 606 5 780 90 q 416 -27 511 -27 l 399 -27 q 209 5 304 -27 q 35 268 35 90 l 35 271 l 306 271 l 306 268 q 332 197 306 227 q 407 167 359 167 q 482 197 456 167 q 509 268 509 227 q 482 339 509 309 q 313 369 456 369 l 312 369 z "},"4":{"ha":882,"x_min":34,"x_max":780,"o":"m 441 317 l 441 513 l 326 317 l 441 317 m 712 317 l 780 317 l 780 90 l 712 90 l 712 0 l 441 0 l 441 90 l 34 90 l 34 317 l 407 949 l 712 949 l 712 317 z "},"5":{"ha":814,"x_min":34,"x_max":780,"o":"m 294 621 q 399 631 347 631 l 416 631 q 606 598 511 631 q 780 302 780 513 q 606 5 780 90 q 416 -27 511 -27 l 399 -27 q 209 5 304 -27 q 35 271 35 90 l 306 271 q 336 199 306 241 q 407 167 359 167 q 479 199 456 167 q 509 288 509 241 l 509 316 q 479 404 509 363 q 407 437 456 437 q 336 404 359 437 q 306 339 306 363 l 34 339 l 34 949 l 780 949 l 780 724 l 294 724 l 294 621 z "},"6":{"ha":814,"x_min":35,"x_max":780,"o":"m 336 404 q 306 316 306 363 l 306 288 q 336 199 306 241 q 407 167 359 167 q 479 199 456 167 q 509 288 509 241 l 509 316 q 479 404 509 363 q 407 437 456 437 q 336 404 359 437 m 306 623 q 399 631 352 631 l 416 631 q 606 598 511 631 q 780 302 780 513 q 606 5 780 90 q 416 -27 511 -27 l 399 -27 q 209 5 304 -27 q 35 298 36 90 l 35 601 q 209 937 35 852 q 399 970 304 970 l 416 970 q 606 937 511 970 q 777 715 757 863 l 505 688 q 479 743 498 717 q 407 776 456 776 q 336 743 359 776 q 306 655 306 702 l 306 623 z "},"7":{"ha":746,"x_min":13,"x_max":712,"o":"m 13 0 l 407 724 l 34 724 l 34 949 l 712 949 l 712 724 l 318 0 l 13 0 z "},"8":{"ha":814,"x_min":35,"x_max":780,"o":"m 332 339 q 319 324 332 339 q 306 268 306 309 q 332 197 306 227 q 407 167 359 167 q 482 197 456 167 q 509 268 509 227 q 482 339 509 309 q 407 369 456 369 q 332 339 359 369 m 332 746 q 319 731 332 746 q 306 675 306 715 q 332 604 306 634 q 407 574 359 574 q 482 604 456 574 q 509 675 509 634 q 482 746 509 715 q 407 776 456 776 q 332 746 359 776 m 694 471 q 780 268 780 393 q 606 5 780 90 q 416 -27 511 -27 l 399 -27 q 209 5 304 -27 q 35 268 35 90 q 120 471 35 393 q 35 675 35 550 q 209 937 35 852 q 399 970 304 970 l 416 970 q 606 937 511 970 q 780 675 780 852 q 694 471 780 550 z "},"9":{"ha":814,"x_min":35,"x_max":780,"o":"m 479 538 q 509 627 509 580 l 509 655 q 479 743 509 702 q 407 776 456 776 q 336 743 359 776 q 306 655 306 702 l 306 627 q 336 538 306 580 q 407 506 359 506 q 479 538 456 506 m 509 319 q 416 312 463 312 l 399 312 q 209 345 304 312 q 35 641 35 429 q 209 937 35 852 q 399 970 304 970 l 416 970 q 606 937 511 970 q 780 644 779 853 l 780 342 q 606 5 780 90 q 416 -27 511 -27 l 399 -27 q 209 5 304 -27 q 37 227 58 79 l 310 255 q 336 199 317 226 q 407 167 359 167 q 479 199 456 167 q 509 288 509 241 l 509 319 z "},"\u0000":{"ha":0,"x_min":0,"x_max":0,"o":""}," ":{"ha":271,"x_min":0,"x_max":0,"o":""},"!":{"ha":339,"x_min":34,"x_max":305,"o":"m 34 258 l 34 949 l 305 949 l 305 258 l 34 258 m 305 190 l 305 0 l 34 0 l 34 190 l 305 190 z "},"\"":{"ha":610,"x_min":14,"x_max":597,"o":"m 305 827 l 271 624 l 68 624 l 14 949 l 597 949 l 543 624 l 339 624 l 305 827 z "},"#":{"ha":882,"x_min":-11,"x_max":894,"o":"m 419 791 l 555 791 l 577 949 l 848 949 l 826 791 l 894 791 l 861 566 l 793 566 l 767 384 l 835 384 l 803 159 l 735 159 l 712 0 l 441 0 l 464 159 l 328 159 l 305 0 l 34 0 l 57 159 l -11 159 l 21 384 l 89 384 l 115 566 l 47 566 l 80 791 l 148 791 l 170 949 l 441 949 l 419 791 m 522 566 l 387 566 l 360 384 l 496 384 l 522 566 z "},"$":{"ha":850,"x_min":16,"x_max":822,"o":"m 339 376 q 119 457 184 414 q 16 663 16 532 q 212 937 16 857 q 339 968 277 960 l 339 1085 l 475 1085 l 475 970 q 713 860 627 954 q 789 666 789 768 l 548 666 q 514 729 541 708 q 475 745 500 739 l 475 588 q 686 509 631 547 q 822 283 822 433 q 616 9 822 90 q 475 -18 549 -13 l 475 -136 l 339 -136 l 339 -14 q 155 56 235 1 q 28 224 50 134 q 18 319 18 264 l 245 319 q 307 229 273 248 q 339 217 320 222 l 339 376 m 475 214 q 566 275 566 227 q 475 347 566 319 l 475 214 m 339 743 q 282 699 290 730 q 279 688 282 697 q 339 624 279 649 l 339 743 z "},"%":{"ha":814,"x_min":-47,"x_max":861,"o":"m 861 949 l 251 0 l -47 0 l 563 949 l 861 949 m 509 190 l 780 190 l 780 0 l 509 0 l 509 190 m 305 760 l 34 760 l 34 949 l 305 949 l 305 760 z "},"&":{"ha":949,"x_min":35,"x_max":882,"o":"m 503 373 l 503 369 q 332 339 359 369 q 306 268 306 309 q 332 197 306 227 q 407 167 359 167 q 482 197 456 167 q 509 268 509 227 l 509 373 l 503 373 m 509 576 l 509 610 l 780 610 l 780 576 l 882 576 l 882 373 l 780 373 l 780 268 l 781 268 q 807 197 781 227 q 882 167 833 167 l 882 -27 l 873 -27 q 684 5 779 -27 q 644 27 663 16 q 606 5 627 16 q 416 -27 511 -27 l 399 -27 q 209 5 304 -27 q 35 268 35 90 q 120 471 35 393 q 35 675 35 550 q 209 937 35 852 q 399 970 304 970 l 416 970 q 606 937 511 970 q 780 678 779 853 l 509 678 q 482 746 507 717 q 407 776 456 776 q 332 746 359 776 q 306 675 306 715 q 332 604 306 634 q 427 576 351 583 l 509 576 z "},"'":{"ha":339,"x_min":14,"x_max":326,"o":"m 326 949 l 271 624 l 68 624 l 14 949 l 326 949 z "},"(":{"ha":543,"x_min":35,"x_max":509,"o":"m 35 642 q 209 978 35 893 q 399 1010 304 1010 l 509 1010 l 509 824 q 336 784 359 817 q 306 696 306 743 l 306 247 q 336 159 306 200 q 509 119 359 126 l 509 -68 l 399 -68 q 209 -35 304 -68 q 35 301 35 50 l 35 642 z "},")":{"ha":543,"x_min":35,"x_max":509,"o":"m 509 642 l 509 301 q 334 -35 509 50 q 144 -68 239 -68 l 35 -68 l 35 119 q 208 159 184 126 q 237 247 237 200 l 237 696 q 208 784 237 743 q 35 824 184 817 l 35 1010 l 144 1010 q 334 978 239 1010 q 509 642 509 893 z "},"*":{"ha":678,"x_min":24,"x_max":653,"o":"m 203 878 l 203 949 l 475 949 l 475 878 l 619 922 l 653 747 l 541 682 l 653 618 l 619 442 l 475 486 l 475 407 l 203 407 l 203 487 l 58 442 l 24 618 l 136 682 l 24 747 l 58 922 l 203 878 z "},"+":{"ha":678,"x_min":34,"x_max":643,"o":"m 203 377 l 34 377 l 34 581 l 203 581 l 203 746 l 475 746 l 475 581 l 643 581 l 643 377 l 475 377 l 475 203 l 203 203 l 203 377 z "},",":{"ha":339,"x_min":34,"x_max":305,"o":"m 102 0 l 34 0 l 34 190 l 305 190 l 305 0 q 34 -136 305 -136 l 34 -68 q 102 0 102 -68 z "},"-":{"ha":678,"x_min":34,"x_max":643,"o":"m 34 581 l 643 581 l 643 377 l 34 377 l 34 581 z "},".":{"ha":339,"x_min":34,"x_max":305,"o":"m 305 190 l 305 0 l 34 0 l 34 190 l 305 190 z "},"/":{"ha":814,"x_min":-47,"x_max":861,"o":"m -47 0 l 563 949 l 861 949 l 251 0 l -47 0 z "},":":{"ha":339,"x_min":34,"x_max":305,"o":"m 305 190 l 305 0 l 34 0 l 34 190 l 305 190 m 305 694 l 305 505 l 34 505 l 34 694 l 305 694 z "},";":{"ha":339,"x_min":34,"x_max":305,"o":"m 102 0 l 34 0 l 34 190 l 305 190 l 305 0 q 34 -136 305 -136 l 34 -68 q 102 0 102 -68 m 305 694 l 305 505 l 34 505 l 34 694 l 305 694 z "},"<":{"ha":678,"x_min":34,"x_max":644,"o":"m 644 109 l 34 353 l 34 597 l 644 841 l 644 564 l 392 470 l 644 380 l 644 109 z "},"=":{"ha":678,"x_min":34,"x_max":643,"o":"m 34 716 l 643 716 l 643 513 l 34 513 l 34 716 m 34 445 l 643 445 l 643 241 l 34 241 l 34 445 z "},">":{"ha":678,"x_min":34,"x_max":644,"o":"m 34 841 l 644 597 l 644 353 l 34 109 l 34 386 l 286 479 l 34 569 l 34 841 z "},"?":{"ha":678,"x_min":0,"x_max":684,"o":"m 342 955 l 347 955 q 665 781 580 955 q 684 667 684 726 q 500 404 684 471 q 441 385 441 395 l 441 252 l 170 252 l 170 529 q 279 548 170 548 q 407 597 374 564 q 431 651 431 624 q 377 719 431 699 q 339 724 357 724 l 326 724 q 133 637 237 724 l 130 637 l 0 814 l 0 817 q 342 955 144 955 m 441 190 l 441 0 l 170 0 l 170 190 l 441 190 z "},"@":{"ha":1085,"x_min":34,"x_max":1051,"o":"m 468 473 q 477 414 468 435 q 536 378 492 378 q 553 380 545 380 q 606 476 606 391 q 595 548 605 539 q 542 574 595 569 l 532 574 q 502 570 519 574 q 468 486 468 547 l 468 473 m 488 257 q 408 272 448 257 q 292 484 292 331 l 292 490 q 320 601 292 551 q 480 694 381 694 l 502 694 q 602 654 555 694 l 602 693 l 769 693 l 768 268 l 602 268 l 602 297 l 600 297 q 488 257 552 257 m 233 483 l 233 479 q 380 201 233 308 q 531 156 453 156 l 559 156 q 840 374 752 156 q 854 476 854 432 l 854 493 q 675 781 854 679 q 538 813 610 813 q 264 634 355 813 q 233 483 233 572 m 543 -14 q 183 132 332 -14 q 34 481 34 277 q 183 831 34 686 q 543 977 332 977 q 902 831 753 977 q 1051 481 1051 686 q 902 132 1051 277 q 543 -14 753 -14 z "},"A":{"ha":1017,"x_min":7,"x_max":1010,"o":"m 345 136 l 294 0 l 7 0 l 387 949 l 631 949 l 1010 0 l 723 0 l 675 136 l 345 136 m 603 339 l 513 591 l 420 339 l 603 339 z "},"B":{"ha":882,"x_min":34,"x_max":846,"o":"m 34 949 l 488 949 q 755 857 681 949 q 804 708 804 797 q 703 524 804 587 l 703 521 q 846 296 846 462 l 846 279 q 656 16 846 92 q 559 0 606 0 l 34 0 l 34 949 m 296 749 l 296 578 l 476 578 q 556 671 556 578 q 488 745 556 736 q 439 749 471 749 l 296 749 m 296 388 l 296 210 l 496 210 q 578 263 557 210 q 585 308 585 290 q 481 388 585 388 l 296 388 z "},"C":{"ha":1017,"x_min":0,"x_max":1008,"o":"m 725 373 l 1003 373 q 746 46 960 178 q 507 -14 637 -14 q 109 179 277 -14 q 0 483 0 317 q 233 901 0 744 q 513 979 360 979 q 884 822 716 979 q 1008 576 985 707 l 735 576 q 610 716 706 661 q 505 741 560 741 q 293 602 363 741 q 269 486 269 554 l 269 483 q 382 269 269 351 q 499 233 439 233 l 521 233 q 725 373 656 233 z "},"D":{"ha":949,"x_min":34,"x_max":940,"o":"m 34 947 l 473 947 q 804 844 707 947 q 940 472 940 714 q 699 43 940 151 q 479 0 598 0 l 34 0 l 34 947 m 304 742 l 304 237 l 420 237 q 625 347 574 237 q 654 475 654 404 l 654 507 q 518 724 654 662 q 414 742 466 742 l 304 742 z "},"E":{"ha":746,"x_min":34,"x_max":712,"o":"m 712 949 l 712 724 l 294 724 l 294 581 l 677 581 l 677 377 l 294 377 l 294 228 l 712 228 l 712 0 l 34 0 l 34 949 l 712 949 z "},"F":{"ha":746,"x_min":34,"x_max":712,"o":"m 712 949 l 712 724 l 294 724 l 294 581 l 677 581 l 677 377 l 294 377 l 294 0 l 34 0 l 34 949 l 712 949 z "},"G":{"ha":1017,"x_min":34,"x_max":983,"o":"m 509 966 q 909 808 774 966 l 726 646 q 658 708 703 681 q 538 730 611 730 q 324 581 401 730 q 302 475 302 528 q 460 225 302 298 q 544 209 505 209 l 574 209 q 709 260 709 222 l 709 353 l 522 353 l 522 551 l 983 551 l 983 -3 l 780 -3 q 780 27 780 20 q 585 -19 717 -3 q 511 -27 550 -24 q 202 84 332 -27 q 88 241 123 162 q 34 475 34 350 q 199 852 34 680 q 509 966 328 966 z "},"H":{"ha":882,"x_min":34,"x_max":848,"o":"m 305 362 l 305 0 l 34 0 l 34 949 l 305 949 l 305 587 l 576 587 l 576 949 l 848 949 l 848 0 l 576 0 l 576 362 l 305 362 z "},"I":{"ha":339,"x_min":34,"x_max":305,"o":"m 34 0 l 34 949 l 305 949 l 305 0 l 34 0 z "},"J":{"ha":949,"x_min":34,"x_max":910,"o":"m 34 475 l 297 475 l 297 464 q 362 260 297 298 q 476 225 403 225 q 636 336 593 225 q 644 404 644 377 l 644 949 l 910 949 l 910 437 q 739 54 910 161 q 465 -22 633 -22 q 64 228 160 -22 q 34 412 34 310 l 34 475 z "},"K":{"ha":949,"x_min":34,"x_max":948,"o":"m 297 949 l 297 570 l 620 949 l 929 949 l 574 540 l 948 0 l 625 0 l 395 353 l 392 353 l 297 247 l 297 0 l 34 0 l 34 949 l 297 949 z "},"L":{"ha":746,"x_min":34,"x_max":712,"o":"m 297 949 l 297 233 l 712 233 l 712 0 l 34 0 l 34 949 l 297 949 z "},"M":{"ha":1167,"x_min":34,"x_max":1138,"o":"m 39 947 l 446 947 q 525 635 454 947 q 585 391 538 592 l 590 391 l 723 947 l 1138 947 l 1138 0 l 864 0 l 864 605 q 818 442 857 605 q 696 0 812 428 l 481 0 q 433 171 475 0 l 313 605 l 311 605 l 311 0 l 34 0 l 34 941 q 39 947 35 947 z "},"N":{"ha":882,"x_min":34,"x_max":848,"o":"m 305 475 l 305 0 l 34 0 l 34 949 l 305 949 l 576 475 l 576 949 l 848 949 l 848 0 l 576 0 l 305 475 z "},"O":{"ha":1085,"x_min":34,"x_max":1051,"o":"m 302 486 l 302 483 q 416 269 302 351 q 533 233 473 233 l 555 233 q 772 401 703 233 q 783 480 783 446 l 783 494 q 644 716 783 637 q 538 741 594 741 q 327 602 397 741 q 302 486 302 554 m 543 -14 q 183 132 332 -14 q 34 481 34 277 q 183 831 34 686 q 543 977 332 977 q 902 831 753 977 q 1051 481 1051 686 q 902 132 1051 277 q 543 -14 753 -14 z "},"P":{"ha":882,"x_min":34,"x_max":849,"o":"m 472 949 q 787 814 705 949 q 849 621 849 734 l 849 605 q 591 290 849 368 q 437 274 520 274 l 297 274 l 297 0 l 34 0 l 34 949 l 472 949 m 297 727 l 297 499 l 420 499 q 567 529 548 499 q 589 602 589 563 q 429 727 589 727 l 297 727 z "},"Q":{"ha":1085,"x_min":34,"x_max":1051,"o":"m 302 486 l 302 483 q 416 269 302 351 q 533 233 473 233 l 555 233 q 772 401 703 233 q 783 480 783 446 l 783 494 q 644 716 783 637 q 538 741 594 741 q 327 602 397 741 q 302 486 302 554 m 916 146 l 1031 31 l 840 -160 l 677 3 q 543 -14 613 -14 q 183 132 332 -14 q 34 481 34 277 q 183 831 34 686 q 543 977 332 977 q 902 831 753 977 q 1051 481 1051 686 q 916 146 1051 287 z "},"R":{"ha":882,"x_min":34,"x_max":868,"o":"m 297 727 l 297 499 l 420 499 q 567 529 548 499 q 589 602 589 563 q 429 727 589 727 l 297 727 m 317 274 l 297 274 l 297 0 l 34 0 l 34 949 l 472 949 q 787 814 705 949 q 849 621 849 734 l 849 605 q 604 294 849 374 q 868 0 800 43 l 549 0 q 317 274 484 42 z "},"S":{"ha":850,"x_min":16,"x_max":822,"o":"m 412 972 q 713 860 610 972 q 789 666 789 768 l 548 666 q 514 729 541 708 q 412 750 486 750 q 282 699 296 750 q 279 688 282 697 q 423 601 279 627 q 686 509 623 553 q 822 283 822 433 q 616 9 822 90 q 426 -20 527 -20 q 155 56 268 -20 q 28 224 50 134 q 18 319 18 264 l 245 319 q 307 229 273 248 q 410 210 341 210 l 442 210 q 566 275 566 219 q 363 370 566 340 q 119 457 189 411 q 16 663 16 532 q 212 937 16 857 q 412 972 316 972 z "},"T":{"ha":746,"x_min":34,"x_max":712,"o":"m 712 949 l 712 724 l 509 724 l 509 0 l 237 0 l 237 724 l 34 724 l 34 949 l 712 949 z "},"U":{"ha":949,"x_min":34,"x_max":910,"o":"m 34 949 l 297 949 l 297 464 q 362 260 297 298 q 476 225 403 225 q 636 336 593 225 q 644 404 644 377 l 644 949 l 910 949 l 910 437 q 739 54 910 161 q 465 -22 633 -22 q 64 228 160 -22 q 34 412 34 310 l 34 949 z "},"V":{"ha":1017,"x_min":7,"x_max":1010,"o":"m 7 949 l 294 949 l 513 358 l 723 949 l 1010 949 l 631 0 l 387 0 l 7 949 z "},"W":{"ha":1492,"x_min":20,"x_max":1472,"o":"m 327 949 l 460 407 l 644 949 l 861 949 l 1038 418 l 1162 949 l 1472 949 l 1160 0 l 905 0 l 745 537 l 582 0 l 332 0 l 20 949 l 327 949 z "},"X":{"ha":814,"x_min":-47,"x_max":861,"o":"m 407 243 l 251 0 l -47 0 l 258 475 l -47 949 l 251 949 l 407 707 l 563 949 l 861 949 l 556 475 l 861 0 l 563 0 l 407 243 z "},"Y":{"ha":814,"x_min":-47,"x_max":861,"o":"m 543 454 l 543 0 l 271 0 l 271 454 l -47 949 l 251 949 l 407 707 l 563 949 l 861 949 l 543 454 z "},"Z":{"ha":746,"x_min":34,"x_max":712,"o":"m 712 0 l 34 0 l 34 228 l 407 724 l 34 724 l 34 949 l 712 949 l 712 724 l 339 228 l 712 228 l 712 0 z "},"[":{"ha":543,"x_min":34,"x_max":509,"o":"m 34 1017 l 509 1017 l 509 824 l 306 824 l 306 119 l 509 119 l 509 -68 l 34 -68 l 34 1017 z "},"\\":{"ha":814,"x_min":-47,"x_max":861,"o":"m -47 949 l 251 949 l 861 0 l 563 0 l -47 949 z "},"]":{"ha":543,"x_min":34,"x_max":509,"o":"m 509 1017 l 509 -68 l 34 -68 l 34 119 l 237 119 l 237 824 l 34 824 l 34 1017 l 509 1017 z "},"^":{"ha":610,"x_min":34,"x_max":576,"o":"m 441 949 l 576 678 l 373 678 l 305 746 l 237 678 l 34 678 l 170 949 l 441 949 z "},"_":{"ha":746,"x_min":34,"x_max":712,"o":"m 34 228 l 712 228 l 712 0 l 34 0 l 34 228 z "},"`":{"ha":407,"x_min":34,"x_max":373,"o":"m 170 678 l 34 949 l 305 949 l 373 678 l 170 678 z "},"a":{"ha":814,"x_min":0,"x_max":777,"o":"m 288 334 q 301 237 288 272 q 399 180 326 180 q 426 183 413 183 q 513 339 513 200 q 494 456 510 441 q 407 499 494 490 l 391 499 q 342 491 371 499 q 288 355 288 455 l 288 334 m 320 -18 q 190 7 255 -18 q 0 353 0 102 l 0 361 q 46 543 0 462 q 307 694 146 694 l 342 694 q 506 629 428 694 l 506 692 l 777 692 l 777 0 l 505 0 l 505 47 l 502 47 q 320 -18 424 -18 z "},"b":{"ha":814,"x_min":34,"x_max":811,"o":"m 524 334 l 524 355 q 469 491 524 455 q 420 499 440 499 l 404 499 q 317 456 317 490 q 298 339 301 441 q 385 183 298 200 q 412 180 398 183 q 510 237 486 180 q 524 334 524 272 m 491 -18 q 309 47 387 -18 l 307 47 l 307 0 l 35 0 l 34 949 l 305 949 l 305 629 q 469 694 383 694 l 505 694 q 765 543 665 694 q 811 361 811 462 l 811 353 q 621 7 811 102 q 491 -18 556 -18 z "},"c":{"ha":746,"x_min":0,"x_max":747,"o":"m 399 726 l 431 726 q 742 568 627 726 q 557 439 734 557 q 414 513 502 513 q 267 395 310 513 l 264 363 l 264 339 q 371 194 264 239 q 406 189 391 189 l 429 189 q 566 261 496 189 q 747 138 736 149 q 541 -9 660 27 q 402 -26 464 -26 q 43 176 172 -26 q 0 345 0 261 l 0 355 q 170 659 0 538 q 399 726 277 726 z "},"d":{"ha":814,"x_min":0,"x_max":777,"o":"m 288 334 q 301 237 288 272 q 399 180 326 180 q 426 183 413 183 q 513 339 513 200 q 494 456 510 441 q 407 499 494 490 l 391 499 q 342 491 371 499 q 288 355 288 455 l 288 334 m 320 -18 q 190 7 255 -18 q 0 353 0 102 l 0 361 q 46 543 0 462 q 307 694 146 694 l 342 694 q 506 629 428 694 l 506 949 l 777 949 l 777 0 l 505 0 l 505 47 l 502 47 q 320 -18 424 -18 z "},"e":{"ha":814,"x_min":34,"x_max":788,"o":"m 286 427 l 536 427 l 536 429 q 495 491 536 458 q 419 510 458 510 q 286 427 309 510 m 411 715 q 774 419 696 715 q 788 280 788 363 l 788 267 l 289 267 l 289 264 q 354 186 311 208 q 430 165 394 165 l 439 165 q 530 220 487 165 l 774 220 l 774 217 q 433 -20 640 -20 q 137 94 240 -20 q 34 343 34 208 q 142 606 34 500 q 411 715 251 712 z "},"f":{"ha":610,"x_min":34,"x_max":576,"o":"m 374 399 l 374 0 l 102 0 l 102 399 l 34 399 l 34 590 l 102 590 q 277 910 108 828 q 467 943 372 943 l 576 943 l 576 756 q 404 716 427 749 q 374 628 374 675 l 374 590 l 543 590 l 543 399 l 374 399 z "},"g":{"ha":814,"x_min":3,"x_max":779,"o":"m 323 709 q 505 644 427 709 l 507 644 l 507 692 l 779 692 l 779 118 q 605 -218 779 -134 q 415 -251 510 -251 q 132 -183 209 -251 q 54 -7 54 -115 l 315 -7 q 377 -66 325 -66 q 478 -25 448 -66 q 507 64 507 17 l 507 96 q 345 31 431 31 l 309 31 q 49 183 149 31 q 3 365 3 264 l 3 373 q 193 685 3 589 q 323 709 258 709 m 290 392 l 290 370 q 345 235 290 271 q 393 227 374 227 l 410 227 q 496 270 496 235 q 515 387 513 284 q 429 509 515 492 q 401 511 416 509 q 304 454 328 511 q 290 392 290 420 z "},"h":{"ha":788,"x_min":34,"x_max":755,"o":"m 755 0 l 500 0 l 500 361 q 430 486 500 462 q 406 488 415 488 l 389 488 q 294 404 317 488 q 292 380 292 394 l 292 0 l 34 0 l 34 972 l 292 972 l 292 605 q 500 716 384 716 l 519 716 q 745 548 687 716 q 755 456 755 497 l 755 0 z "},"i":{"ha":339,"x_min":34,"x_max":305,"o":"m 305 692 l 305 0 l 34 0 l 34 692 l 305 692 m 34 760 l 34 949 l 305 949 l 305 760 l 34 760 z "},"j":{"ha":339,"x_min":-135,"x_max":305,"o":"m 34 760 l 34 949 l 305 949 l 305 760 l 34 760 m 34 692 l 305 692 l 305 118 q 131 -218 305 -134 q -59 -251 36 -251 l -135 -251 l -135 -64 q 4 -24 -19 -57 q 34 64 34 17 l 34 692 z "},"k":{"ha":746,"x_min":34,"x_max":746,"o":"m 305 465 l 454 692 l 746 692 l 519 346 l 746 0 l 454 0 l 305 227 l 305 0 l 34 0 l 34 949 l 305 949 l 305 465 z "},"l":{"ha":339,"x_min":34,"x_max":305,"o":"m 34 0 l 34 949 l 305 949 l 305 0 l 34 0 z "},"m":{"ha":1185,"x_min":34,"x_max":1153,"o":"m 467 0 l 467 361 q 396 486 467 462 q 372 488 381 488 l 355 488 q 294 404 317 488 q 292 380 292 394 l 292 0 l 34 0 l 34 692 l 292 692 l 292 605 q 467 716 350 716 l 486 716 q 697 595 612 716 q 804 693 726 644 q 898 716 845 716 l 917 716 q 1142 548 1084 716 q 1153 456 1153 497 l 1153 0 l 898 0 l 898 361 q 827 486 898 462 q 803 488 812 488 l 787 488 q 726 404 749 488 q 723 380 723 394 l 723 0 l 467 0 z "},"n":{"ha":788,"x_min":34,"x_max":755,"o":"m 755 0 l 500 0 l 500 361 q 430 486 500 462 q 406 488 415 488 l 389 488 q 294 404 317 488 q 292 380 292 394 l 292 0 l 34 0 l 34 692 l 292 692 l 292 605 q 500 716 384 716 l 519 716 q 745 548 687 716 q 755 456 755 497 l 755 0 z "},"o":{"ha":814,"x_min":7,"x_max":810,"o":"m 414 728 q 758 544 627 728 q 810 368 810 451 l 810 330 q 677 61 810 182 q 406 -34 559 -34 q 64 145 190 -34 q 7 340 7 235 l 7 351 q 208 680 7 557 q 414 728 303 728 m 297 362 l 297 327 q 376 186 297 203 l 414 183 q 506 240 486 183 q 522 349 522 289 q 411 511 522 511 l 403 511 q 313 452 337 511 q 297 362 297 412 z "},"p":{"ha":814,"x_min":34,"x_max":811,"o":"m 491 709 q 621 685 556 709 q 811 373 811 589 l 811 365 q 765 183 811 264 q 505 31 665 31 l 469 31 q 305 96 383 31 l 305 -203 l 34 -203 l 34 118 l 35 692 l 307 692 l 307 644 l 309 644 q 491 709 387 709 m 524 392 q 510 454 524 420 q 412 511 486 511 q 385 509 398 509 q 298 387 298 492 q 317 270 301 284 q 404 227 317 235 l 420 227 q 469 235 440 227 q 524 370 524 271 l 524 392 z "},"q":{"ha":814,"x_min":3,"x_max":780,"o":"m 323 709 q 505 644 427 709 l 507 644 l 507 692 l 779 692 l 780 118 l 780 -203 l 509 -203 l 509 96 q 345 31 431 31 l 309 31 q 49 183 149 31 q 3 365 3 264 l 3 373 q 193 685 3 589 q 323 709 258 709 m 290 392 l 290 370 q 345 235 290 271 q 393 227 374 227 l 410 227 q 496 270 496 235 q 515 387 513 284 q 429 509 515 492 q 401 511 416 509 q 304 454 328 511 q 290 392 290 420 z "},"r":{"ha":610,"x_min":34,"x_max":574,"o":"m 495 703 l 574 686 l 574 437 l 533 437 q 327 350 376 437 q 297 198 297 307 l 297 0 l 34 0 l 34 692 l 292 692 l 292 551 l 332 618 q 495 703 397 703 z "},"s":{"ha":713,"x_min":0,"x_max":675,"o":"m 329 723 l 361 723 q 659 642 507 723 q 570 479 659 635 l 477 505 q 365 524 410 524 l 348 524 q 299 488 307 524 q 408 442 299 466 q 612 354 562 400 q 675 208 675 299 q 452 -28 675 18 q 372 -34 403 -34 l 352 -34 q 0 72 160 -34 l 0 75 q 100 227 96 226 l 103 227 q 334 165 218 165 l 351 165 q 411 193 411 165 q 268 258 411 231 q 63 376 111 300 q 35 481 35 426 q 258 718 35 665 q 329 723 300 723 z "},"t":{"ha":610,"x_min":34,"x_max":576,"o":"m 102 692 l 102 943 l 374 943 l 374 692 l 576 692 l 576 500 l 374 500 l 374 315 q 404 227 374 268 q 576 186 427 194 l 576 0 l 467 0 q 277 33 372 0 q 102 369 102 117 l 102 500 l 34 500 l 34 692 l 102 692 z "},"u":{"ha":788,"x_min":34,"x_max":755,"o":"m 34 692 l 289 692 l 289 335 q 359 210 289 234 q 384 208 374 208 l 400 208 q 495 292 472 208 q 498 316 498 302 l 498 692 l 755 692 l 755 -4 l 498 -4 l 498 91 q 289 -20 406 -20 l 270 -20 q 45 148 102 -20 q 34 240 34 199 l 34 692 z "},"v":{"ha":814,"x_min":0,"x_max":811,"o":"m 0 692 l 301 692 l 407 339 l 518 692 l 811 692 q 524 0 524 5 l 288 0 l 0 692 z "},"w":{"ha":1064,"x_min":0,"x_max":1068,"o":"m 433 692 l 635 692 l 743 345 l 836 692 l 1068 692 l 857 0 l 645 0 l 532 305 l 418 0 l 209 0 l 0 692 l 237 692 l 330 350 l 433 692 z "},"x":{"ha":746,"x_min":0,"x_max":746,"o":"m 227 346 l 0 692 l 292 692 l 373 568 l 454 692 l 746 692 l 519 346 l 746 0 l 454 0 l 373 124 l 292 0 l 0 0 l 227 346 z "},"y":{"ha":814,"x_min":0,"x_max":814,"o":"m 283 12 l 0 692 l 301 692 l 407 339 l 518 692 l 814 692 l 605 118 q 307 -218 514 -134 q 171 -251 233 -244 l 102 -251 l 102 -64 q 250 -24 214 -57 q 283 12 269 -7 z "},"z":{"ha":678,"x_min":34,"x_max":644,"o":"m 644 0 l 34 0 l 34 214 l 326 480 l 34 480 l 34 692 l 644 692 l 644 480 l 353 214 l 644 214 l 644 0 z "},"{":{"ha":678,"x_min":35,"x_max":644,"o":"m 170 678 l 170 696 q 345 978 170 893 q 534 1010 439 1010 l 644 1010 l 644 824 q 471 784 494 817 q 441 696 441 743 l 441 678 l 441 678 l 441 654 q 323 471 441 547 q 441 289 441 395 l 441 271 l 441 271 l 441 247 q 471 159 441 200 q 644 119 494 126 l 644 -68 l 534 -68 q 345 -35 439 -68 q 170 247 170 50 l 170 271 l 170 271 l 170 289 q 35 370 170 336 l 35 573 q 170 654 170 607 l 170 678 l 170 678 z "},"|":{"ha":339,"x_min":34,"x_max":305,"o":"m 34 -68 l 34 1017 l 305 1017 l 305 -68 l 34 -68 z "},"}":{"ha":678,"x_min":35,"x_max":644,"o":"m 509 678 l 509 678 l 509 654 q 644 573 509 607 l 644 370 q 509 289 509 336 l 509 271 l 509 271 l 509 247 q 334 -35 509 50 q 144 -68 239 -68 l 35 -68 l 35 119 q 208 159 184 126 q 237 247 237 200 l 237 271 l 238 271 l 238 289 q 355 471 238 395 q 238 654 238 547 l 238 678 l 237 678 l 237 696 q 208 784 237 743 q 35 824 184 817 l 35 1010 l 144 1010 q 334 978 239 1010 q 509 696 509 893 l 509 678 z "},"~":{"ha":543,"x_min":34,"x_max":507,"o":"m 34 581 q 271 581 119 648 q 507 581 423 513 l 507 377 q 271 377 423 309 q 34 377 119 445 l 34 581 z "},"¡":{"ha":339,"x_min":34,"x_max":305,"o":"m 305 437 l 305 -255 l 34 -255 l 34 437 l 305 437 m 34 505 l 34 694 l 305 694 l 305 505 l 34 505 z "},"¢":{"ha":746,"x_min":0,"x_max":747,"o":"m 339 -22 q 43 176 153 3 q 0 345 0 261 l 0 355 q 170 659 0 538 q 339 722 250 709 l 339 814 l 475 814 l 475 724 q 742 568 640 708 q 557 439 734 557 q 475 503 522 486 l 475 197 q 566 261 519 214 q 747 138 736 149 q 541 -9 660 27 q 475 -21 506 -17 l 475 -136 l 339 -136 l 339 -22 m 339 494 q 267 395 292 465 l 264 363 l 264 339 q 339 210 264 256 l 339 494 z "},"£":{"ha":814,"x_min":34,"x_max":799,"o":"m 484 958 q 799 819 681 958 l 642 648 q 500 724 573 724 q 395 578 395 724 l 395 537 l 685 537 l 685 353 l 395 353 l 395 206 l 784 206 l 784 0 l 34 0 l 34 206 l 137 206 l 137 353 l 34 353 l 34 532 q 39 537 35 537 l 137 537 l 137 621 q 278 903 137 807 q 484 958 368 958 z "},"¤":{"ha":814,"x_min":-1,"x_max":814,"o":"m 297 396 l 297 361 q 376 220 297 237 l 414 217 q 506 274 486 217 q 522 382 522 323 q 411 545 522 545 l 403 545 q 313 486 337 545 q 297 396 297 446 m 606 716 l 671 781 l 814 637 l 757 579 l 758 578 q 810 401 810 485 l 810 363 q 748 176 810 264 l 814 109 l 671 -35 l 594 42 q 406 0 508 0 q 219 41 302 0 l 143 -35 l -1 109 l 66 176 q 64 179 65 178 q 7 374 7 269 l 7 385 q 60 576 7 492 l -1 637 l 143 781 l 210 714 q 414 762 304 762 q 606 716 520 762 z "},"¥":{"ha":814,"x_min":-47,"x_max":861,"o":"m 543 454 l 543 407 l 678 407 l 678 203 l 543 203 l 543 0 l 271 0 l 271 203 l 136 203 l 136 407 l 271 407 l 271 454 l -47 949 l 251 949 l 407 707 l 563 949 l 861 949 l 543 454 z "},"¦":{"ha":339,"x_min":34,"x_max":305,"o":"m 305 407 l 305 -68 l 34 -68 l 34 407 l 305 407 m 34 543 l 34 1017 l 305 1017 l 305 543 l 34 543 z "},"§":{"ha":850,"x_min":16,"x_max":822,"o":"m 412 972 q 713 860 610 972 q 789 666 789 768 l 548 666 q 514 729 541 708 q 412 750 486 750 q 282 699 296 750 q 279 688 282 697 q 423 635 279 661 q 686 543 623 587 q 822 283 822 467 q 616 9 822 90 q 426 -20 527 -20 q 155 56 268 -20 q 28 224 50 134 q 18 319 18 264 l 245 319 q 307 229 273 248 q 410 210 341 210 l 442 210 q 566 275 566 219 q 363 336 566 306 q 119 423 189 377 q 16 663 16 498 q 212 937 16 857 q 412 972 316 972 z "},"¨":{"ha":543,"x_min":34,"x_max":509,"o":"m 237 949 l 237 739 l 34 739 l 34 949 l 237 949 m 509 949 l 509 739 l 305 739 l 305 949 l 509 949 z "},"©":{"ha":1085,"x_min":34,"x_max":1051,"o":"m 233 483 l 233 479 q 380 201 233 308 q 531 156 453 156 l 559 156 q 840 374 752 156 q 854 476 854 432 l 854 493 q 675 781 854 679 q 538 813 610 813 q 264 634 355 813 q 233 483 233 572 m 543 -14 q 183 132 332 -14 q 34 481 34 277 q 183 831 34 686 q 543 977 332 977 q 902 831 753 977 q 1051 481 1051 686 q 902 132 1051 277 q 543 -14 753 -14 m 546 711 l 566 711 q 757 614 686 711 q 644 534 752 607 q 555 580 609 580 q 465 507 491 580 l 463 488 l 463 473 q 528 383 463 412 q 550 380 541 380 l 564 380 q 649 425 606 380 q 760 349 753 355 q 633 258 707 281 q 548 248 586 248 q 327 372 406 248 q 300 476 300 425 l 300 483 q 404 669 300 595 q 546 711 471 711 z "},"®":{"ha":1085,"x_min":34,"x_max":1051,"o":"m 495 603 l 495 491 l 555 491 q 627 506 618 491 q 638 542 638 523 q 559 603 638 603 l 495 603 m 768 252 q 840 374 810 300 q 854 476 854 432 l 854 493 q 675 781 854 679 q 538 813 610 813 q 264 634 355 813 q 233 483 233 572 l 233 479 q 380 201 233 308 q 531 156 453 156 l 559 156 q 765 247 684 156 l 619 247 q 505 381 587 267 l 495 381 l 495 247 l 366 247 l 366 712 l 581 712 q 735 646 695 712 q 766 551 766 607 l 766 543 q 646 391 766 430 q 768 252 733 279 m 543 -14 q 183 132 332 -14 q 34 481 34 277 q 183 831 34 686 q 543 977 332 977 q 902 831 753 977 q 1051 481 1051 686 q 902 132 1051 277 q 543 -14 753 -14 z "},"¯":{"ha":746,"x_min":34,"x_max":712,"o":"m 34 949 l 712 949 l 712 722 l 34 722 l 34 949 z "},"°":{"ha":407,"x_min":0,"x_max":407,"o":"m 203 543 q 60 602 119 543 q 0 746 0 662 q 60 890 0 830 q 203 949 119 949 q 347 890 288 949 q 407 746 407 830 q 347 602 407 662 q 203 543 288 543 m 203 678 q 251 698 231 678 q 271 746 271 718 q 251 794 271 774 q 203 814 231 814 q 156 794 176 814 q 136 746 136 774 q 156 698 136 718 q 203 678 176 678 z "},"±":{"ha":678,"x_min":34,"x_max":643,"o":"m 203 377 l 203 445 l 34 445 l 34 648 l 203 648 l 203 814 l 475 814 l 475 648 l 643 648 l 643 445 l 475 445 l 475 377 l 643 377 l 643 174 l 34 174 l 34 377 l 203 377 z "},"´":{"ha":407,"x_min":34,"x_max":373,"o":"m 237 678 l 34 678 l 102 949 l 373 949 l 237 678 z "},"µ":{"ha":788,"x_min":34,"x_max":755,"o":"m 755 692 l 755 236 q 745 144 755 195 q 519 -24 687 -24 l 500 -24 q 292 87 384 -24 l 292 -213 l 34 -213 l 34 692 l 292 692 l 292 312 q 294 288 292 298 q 389 203 317 203 l 406 203 q 430 206 415 203 q 500 331 500 230 l 500 692 l 755 692 z "},"¶":{"ha":882,"x_min":34,"x_max":849,"o":"m 373 277 q 292 290 330 281 q 34 605 34 368 l 34 621 q 96 814 34 734 q 411 949 178 949 l 849 949 l 849 0 l 654 0 l 654 749 l 576 749 l 576 0 l 373 0 l 373 277 z "},"·":{"ha":339,"x_min":34,"x_max":305,"o":"m 305 570 l 305 380 l 34 380 l 34 570 l 305 570 z "},"¸":{"ha":271,"x_min":0,"x_max":271,"o":"m 68 136 l 271 136 l 203 0 q 271 -170 271 -68 q 0 -271 271 -271 l 0 -136 q 0 0 136 -136 l 68 136 z "},"¿":{"ha":678,"x_min":0,"x_max":684,"o":"m 342 -260 l 336 -260 q 19 -87 104 -260 q 0 27 0 -32 q 183 290 0 223 q 243 309 243 300 l 243 442 l 514 442 l 514 165 q 404 146 514 146 q 277 98 310 130 q 252 43 252 71 q 307 -24 252 -5 q 345 -30 327 -30 l 358 -30 q 551 57 446 -30 l 553 57 l 684 -119 l 684 -122 q 342 -260 540 -260 m 243 505 l 243 694 l 514 694 l 514 505 l 243 505 z "},"À":{"ha":1017,"x_min":7,"x_max":1010,"o":"m 345 136 l 294 0 l 7 0 l 387 949 l 631 949 l 1010 0 l 723 0 l 675 136 l 345 136 m 418 1017 l 283 1289 l 554 1289 l 622 1017 l 418 1017 m 603 339 l 513 591 l 420 339 l 603 339 z "},"Á":{"ha":1017,"x_min":7,"x_max":1010,"o":"m 345 136 l 294 0 l 7 0 l 387 949 l 631 949 l 1010 0 l 723 0 l 675 136 l 345 136 m 599 1017 l 395 1017 l 463 1289 l 734 1289 l 599 1017 m 603 339 l 513 591 l 420 339 l 603 339 z "},"Â":{"ha":1017,"x_min":7,"x_max":1010,"o":"m 345 136 l 294 0 l 7 0 l 387 949 l 631 949 l 1010 0 l 723 0 l 675 136 l 345 136 m 644 1289 l 780 1017 l 576 1017 l 509 1085 l 441 1017 l 237 1017 l 373 1289 l 644 1289 m 603 339 l 513 591 l 420 339 l 603 339 z "},"Ã":{"ha":1017,"x_min":7,"x_max":1010,"o":"m 345 136 l 294 0 l 7 0 l 387 949 l 631 949 l 1010 0 l 723 0 l 675 136 l 345 136 m 272 1252 q 509 1252 425 1320 q 745 1252 593 1184 l 745 1048 q 509 1048 593 981 q 272 1048 425 1116 l 272 1252 m 603 339 l 513 591 l 420 339 l 603 339 z "},"Ä":{"ha":1017,"x_min":7,"x_max":1010,"o":"m 7 0 l 387 949 l 631 949 l 1010 0 l 723 0 l 513 591 l 294 0 l 7 0 m 746 136 l 271 136 l 271 339 l 746 339 l 746 136 m 475 1227 l 475 1017 l 271 1017 l 271 1227 l 475 1227 m 746 1227 l 746 1017 l 543 1017 l 543 1227 l 746 1227 z "},"Å":{"ha":1017,"x_min":7,"x_max":1010,"o":"m 509 1010 q 556 1030 536 1010 q 576 1078 576 1050 q 556 1126 576 1106 q 509 1146 536 1146 q 461 1126 481 1146 q 441 1078 441 1106 q 461 1030 441 1050 q 509 1010 481 1010 m 345 136 l 294 0 l 7 0 l 376 924 q 365 935 370 929 q 305 1078 305 994 q 365 1222 305 1162 q 509 1282 425 1282 q 652 1222 593 1282 q 712 1078 712 1162 q 652 935 712 994 q 641 924 647 929 l 1010 0 l 723 0 l 675 136 l 345 136 m 420 339 l 603 339 l 513 591 l 420 339 z "},"Æ":{"ha":1383,"x_min":7,"x_max":1350,"o":"m 345 136 l 294 0 l 7 0 l 387 949 l 631 949 l 1010 0 l 723 0 l 675 136 l 345 136 m 603 339 l 513 591 l 420 339 l 603 339 m 1350 949 l 1350 724 l 932 724 l 932 581 l 1314 581 l 1314 377 l 932 377 l 932 228 l 1350 228 l 1350 0 l 671 0 l 671 949 l 1350 949 z "},"Ç":{"ha":1017,"x_min":0,"x_max":1008,"o":"m 371 5 q 109 179 225 46 q 0 483 0 317 q 233 901 0 744 q 513 979 360 979 q 884 822 716 979 q 1008 576 985 707 l 735 576 q 610 716 706 661 q 505 741 560 741 q 293 602 363 741 q 269 486 269 554 l 269 483 q 382 269 269 351 q 499 233 439 233 l 521 233 q 725 373 656 233 l 1003 373 q 746 46 960 178 q 580 -9 668 3 q 640 -170 640 -74 q 368 -271 640 -271 l 368 -136 q 368 0 504 -136 l 371 5 z "},"È":{"ha":746,"x_min":34,"x_max":712,"o":"m 712 949 l 712 724 l 294 724 l 294 581 l 677 581 l 677 377 l 294 377 l 294 228 l 712 228 l 712 0 l 34 0 l 34 949 l 712 949 m 283 1017 l 147 1289 l 418 1289 l 486 1017 l 283 1017 z "},"É":{"ha":746,"x_min":34,"x_max":712,"o":"m 712 949 l 712 724 l 294 724 l 294 581 l 677 581 l 677 377 l 294 377 l 294 228 l 712 228 l 712 0 l 34 0 l 34 949 l 712 949 m 463 1017 l 260 1017 l 328 1289 l 599 1289 l 463 1017 z "},"Ê":{"ha":746,"x_min":34,"x_max":712,"o":"m 712 949 l 712 724 l 294 724 l 294 581 l 677 581 l 677 377 l 294 377 l 294 228 l 712 228 l 712 0 l 34 0 l 34 949 l 712 949 m 509 1289 l 644 1017 l 441 1017 l 373 1085 l 305 1017 l 102 1017 l 237 1289 l 509 1289 z "},"Ë":{"ha":746,"x_min":34,"x_max":712,"o":"m 712 949 l 712 724 l 294 724 l 294 581 l 677 581 l 677 377 l 294 377 l 294 228 l 712 228 l 712 0 l 34 0 l 34 949 l 712 949 m 339 1289 l 339 1078 l 136 1078 l 136 1289 l 339 1289 m 610 1289 l 610 1078 l 407 1078 l 407 1289 l 610 1289 z "},"Ì":{"ha":339,"x_min":-56,"x_max":305,"o":"m 34 0 l 34 949 l 305 949 l 305 0 l 34 0 m 79 1017 l -56 1289 l 215 1289 l 283 1017 l 79 1017 z "},"Í":{"ha":339,"x_min":34,"x_max":395,"o":"m 34 0 l 34 949 l 305 949 l 305 0 l 34 0 m 260 1017 l 56 1017 l 124 1289 l 395 1289 l 260 1017 z "},"Î":{"ha":339,"x_min":-102,"x_max":441,"o":"m 34 0 l 34 949 l 305 949 l 305 0 l 34 0 m 305 1289 l 441 1017 l 237 1017 l 170 1085 l 102 1017 l -102 1017 l 34 1289 l 305 1289 z "},"Ï":{"ha":339,"x_min":-68,"x_max":407,"o":"m 34 0 l 34 949 l 305 949 l 305 0 l 34 0 m 136 1227 l 136 1017 l -68 1017 l -68 1227 l 136 1227 m 407 1227 l 407 1017 l 203 1017 l 203 1227 l 407 1227 z "},"Ð":{"ha":1017,"x_min":34,"x_max":1008,"o":"m 372 359 l 372 237 l 488 237 q 692 347 642 237 q 722 475 722 404 l 722 507 q 586 724 722 662 q 482 742 534 742 l 372 742 l 372 587 l 576 587 l 576 359 l 372 359 m 102 587 l 102 947 l 541 947 q 872 844 774 947 q 1008 472 1008 714 q 766 43 1008 151 q 547 0 666 0 l 102 0 l 102 359 l 34 359 l 34 587 l 102 587 z "},"Ñ":{"ha":882,"x_min":34,"x_max":848,"o":"m 305 475 l 305 0 l 34 0 l 34 949 l 305 949 l 576 475 l 576 949 l 848 949 l 848 0 l 576 0 l 305 475 m 204 1198 q 441 1198 357 1265 q 677 1198 526 1130 l 677 994 q 441 994 526 926 q 204 994 357 1062 l 204 1198 z "},"Ò":{"ha":1085,"x_min":34,"x_max":1051,"o":"m 302 486 l 302 483 q 416 269 302 351 q 533 233 473 233 l 555 233 q 772 401 703 233 q 783 480 783 446 l 783 494 q 644 716 783 637 q 538 741 594 741 q 327 602 397 741 q 302 486 302 554 m 543 -14 q 183 132 332 -14 q 34 481 34 277 q 183 831 34 686 q 543 977 332 977 q 902 831 753 977 q 1051 481 1051 686 q 902 132 1051 277 q 543 -14 753 -14 m 452 1017 l 317 1289 l 588 1289 l 656 1017 l 452 1017 z "},"Ó":{"ha":1085,"x_min":34,"x_max":1051,"o":"m 302 486 l 302 483 q 416 269 302 351 q 533 233 473 233 l 555 233 q 772 401 703 233 q 783 480 783 446 l 783 494 q 644 716 783 637 q 538 741 594 741 q 327 602 397 741 q 302 486 302 554 m 543 -14 q 183 132 332 -14 q 34 481 34 277 q 183 831 34 686 q 543 977 332 977 q 902 831 753 977 q 1051 481 1051 686 q 902 132 1051 277 q 543 -14 753 -14 m 633 1017 l 429 1017 l 497 1289 l 768 1289 l 633 1017 z "},"Ô":{"ha":1085,"x_min":34,"x_max":1051,"o":"m 302 486 l 302 483 q 416 269 302 351 q 533 233 473 233 l 555 233 q 772 401 703 233 q 783 480 783 446 l 783 494 q 644 716 783 637 q 538 741 594 741 q 327 602 397 741 q 302 486 302 554 m 543 -14 q 183 132 332 -14 q 34 481 34 277 q 183 831 34 686 q 543 977 332 977 q 902 831 753 977 q 1051 481 1051 686 q 902 132 1051 277 q 543 -14 753 -14 m 678 1289 l 814 1017 l 610 1017 l 543 1085 l 475 1017 l 271 1017 l 407 1289 l 678 1289 z "},"Õ":{"ha":1085,"x_min":34,"x_max":1051,"o":"m 302 486 l 302 483 q 416 269 302 351 q 533 233 473 233 l 555 233 q 772 401 703 233 q 783 480 783 446 l 783 494 q 644 716 783 637 q 538 741 594 741 q 327 602 397 741 q 302 486 302 554 m 543 -14 q 183 132 332 -14 q 34 481 34 277 q 183 831 34 686 q 543 977 332 977 q 902 831 753 977 q 1051 481 1051 686 q 902 132 1051 277 q 543 -14 753 -14 m 306 1252 q 543 1252 458 1320 q 779 1252 627 1184 l 779 1048 q 543 1048 627 981 q 306 1048 458 1116 l 306 1252 z "},"Ö":{"ha":1085,"x_min":34,"x_max":1051,"o":"m 302 486 l 302 483 q 416 269 302 351 q 533 233 473 233 l 555 233 q 772 401 703 233 q 783 480 783 446 l 783 494 q 644 716 783 637 q 538 741 594 741 q 327 602 397 741 q 302 486 302 554 m 543 -14 q 183 132 332 -14 q 34 481 34 277 q 183 831 34 686 q 543 977 332 977 q 902 831 753 977 q 1051 481 1051 686 q 902 132 1051 277 q 543 -14 753 -14 m 509 1227 l 509 1017 l 305 1017 l 305 1227 l 509 1227 m 780 1227 l 780 1017 l 576 1017 l 576 1227 l 780 1227 z "},"×":{"ha":678,"x_min":24,"x_max":653,"o":"m 203 674 l 203 746 l 475 746 l 475 675 l 619 719 l 653 543 l 541 479 l 653 414 l 619 239 l 475 283 l 475 203 l 203 203 l 203 283 l 58 239 l 24 414 l 136 479 l 24 543 l 58 719 l 203 674 z "},"Ø":{"ha":1085,"x_min":34,"x_max":1051,"o":"m 564 739 q 538 741 551 741 q 327 602 397 741 q 302 486 302 554 l 302 483 q 327 371 302 422 l 564 739 m 536 233 l 555 233 q 772 401 703 233 q 783 480 783 446 l 783 494 q 765 589 783 545 l 536 233 m 543 -14 q 183 132 332 -14 q 34 481 34 277 q 183 831 34 686 q 543 977 332 977 q 902 831 753 977 q 1051 481 1051 686 q 902 132 1051 277 q 543 -14 753 -14 z "},"Ù":{"ha":949,"x_min":34,"x_max":910,"o":"m 34 949 l 297 949 l 297 464 q 362 260 297 298 q 476 225 403 225 q 636 336 593 225 q 644 404 644 377 l 644 949 l 910 949 l 910 437 q 739 54 910 161 q 465 -22 633 -22 q 64 228 160 -22 q 34 412 34 310 l 34 949 m 382 1017 l 246 1289 l 517 1289 l 585 1017 l 382 1017 z "},"Ú":{"ha":949,"x_min":34,"x_max":910,"o":"m 34 949 l 297 949 l 297 464 q 362 260 297 298 q 476 225 403 225 q 636 336 593 225 q 644 404 644 377 l 644 949 l 910 949 l 910 437 q 739 54 910 161 q 465 -22 633 -22 q 64 228 160 -22 q 34 412 34 310 l 34 949 m 562 1017 l 359 1017 l 427 1289 l 698 1289 l 562 1017 z "},"Û":{"ha":949,"x_min":34,"x_max":910,"o":"m 34 949 l 297 949 l 297 464 q 362 260 297 298 q 476 225 403 225 q 636 336 593 225 q 644 404 644 377 l 644 949 l 910 949 l 910 437 q 739 54 910 161 q 465 -22 633 -22 q 64 228 160 -22 q 34 412 34 310 l 34 949 m 608 1289 l 743 1017 l 540 1017 l 472 1085 l 404 1017 l 201 1017 l 336 1289 l 608 1289 z "},"Ü":{"ha":949,"x_min":34,"x_max":910,"o":"m 34 949 l 297 949 l 297 464 q 362 260 297 298 q 476 225 403 225 q 636 336 593 225 q 644 404 644 377 l 644 949 l 910 949 l 910 437 q 739 54 910 161 q 465 -22 633 -22 q 64 228 160 -22 q 34 412 34 310 l 34 949 m 438 1227 l 438 1017 l 235 1017 l 235 1227 l 438 1227 m 709 1227 l 709 1017 l 506 1017 l 506 1227 l 709 1227 z "},"Ý":{"ha":814,"x_min":-47,"x_max":861,"o":"m 543 454 l 543 0 l 271 0 l 271 454 l -47 949 l 251 949 l 407 707 l 563 949 l 861 949 l 543 454 m 497 1017 l 294 1017 l 361 1289 l 633 1289 l 497 1017 z "},"Þ":{"ha":949,"x_min":34,"x_max":940,"o":"m 305 879 l 473 879 q 804 776 707 879 q 940 472 940 646 q 699 111 940 219 q 479 68 598 68 l 305 68 l 305 0 l 34 0 l 34 949 l 305 949 l 305 879 m 305 674 l 305 305 l 420 305 q 654 475 654 336 l 654 507 q 518 656 654 594 q 414 674 466 674 l 305 674 z "},"ß":{"ha":814,"x_min":34,"x_max":780,"o":"m 35 678 q 209 937 36 853 q 399 970 304 970 l 416 970 q 606 937 511 970 q 780 675 780 852 q 694 471 780 550 q 780 268 780 393 q 606 5 780 90 q 389 -27 511 -27 l 380 -27 l 380 167 l 380 167 q 482 197 456 167 q 509 268 509 227 q 482 339 509 309 q 380 369 456 369 l 380 369 l 380 574 l 380 574 q 482 604 456 574 q 509 675 509 634 q 482 746 509 715 q 407 776 456 776 q 332 746 359 776 q 306 678 307 717 l 305 678 l 305 0 l 34 0 l 34 678 l 35 678 z "},"à":{"ha":814,"x_min":0,"x_max":777,"o":"m 288 334 q 301 237 288 272 q 399 180 326 180 q 426 183 413 183 q 513 339 513 200 q 494 456 510 441 q 407 499 494 490 l 391 499 q 342 491 371 499 q 288 355 288 455 l 288 334 m 320 -18 q 190 7 255 -18 q 0 353 0 102 l 0 361 q 46 543 0 462 q 307 694 146 694 l 342 694 q 506 629 428 694 l 506 692 l 777 692 l 777 0 l 505 0 l 505 47 l 502 47 q 320 -18 424 -18 m 298 746 l 163 1017 l 434 1017 l 502 746 l 298 746 z "},"á":{"ha":814,"x_min":0,"x_max":777,"o":"m 288 334 q 301 237 288 272 q 399 180 326 180 q 426 183 413 183 q 513 339 513 200 q 494 456 510 441 q 407 499 494 490 l 391 499 q 342 491 371 499 q 288 355 288 455 l 288 334 m 320 -18 q 190 7 255 -18 q 0 353 0 102 l 0 361 q 46 543 0 462 q 307 694 146 694 l 342 694 q 506 629 428 694 l 506 692 l 777 692 l 777 0 l 505 0 l 505 47 l 502 47 q 320 -18 424 -18 m 479 746 l 275 746 l 343 1017 l 614 1017 l 479 746 z "},"â":{"ha":814,"x_min":0,"x_max":777,"o":"m 288 334 q 301 237 288 272 q 399 180 326 180 q 426 183 413 183 q 513 339 513 200 q 494 456 510 441 q 407 499 494 490 l 391 499 q 342 491 371 499 q 288 355 288 455 l 288 334 m 320 -18 q 190 7 255 -18 q 0 353 0 102 l 0 361 q 46 543 0 462 q 307 694 146 694 l 342 694 q 506 629 428 694 l 506 692 l 777 692 l 777 0 l 505 0 l 505 47 l 502 47 q 320 -18 424 -18 m 524 1017 l 660 746 l 456 746 l 389 814 l 321 746 l 117 746 l 253 1017 l 524 1017 z "},"ã":{"ha":814,"x_min":0,"x_max":777,"o":"m 288 334 q 301 237 288 272 q 399 180 326 180 q 426 183 413 183 q 513 339 513 200 q 494 456 510 441 q 407 499 494 490 l 391 499 q 342 491 371 499 q 288 355 288 455 l 288 334 m 320 -18 q 190 7 255 -18 q 0 353 0 102 l 0 361 q 46 543 0 462 q 307 694 146 694 l 342 694 q 506 629 428 694 l 506 692 l 777 692 l 777 0 l 505 0 l 505 47 l 502 47 q 320 -18 424 -18 m 152 987 q 389 987 304 1055 q 625 987 473 920 l 625 784 q 389 784 473 716 q 152 784 304 852 l 152 987 z "},"ä":{"ha":814,"x_min":0,"x_max":777,"o":"m 288 334 q 301 237 288 272 q 399 180 326 180 q 426 183 413 183 q 513 339 513 200 q 494 456 510 441 q 407 499 494 490 l 391 499 q 342 491 371 499 q 288 355 288 455 l 288 334 m 320 -18 q 190 7 255 -18 q 0 353 0 102 l 0 361 q 46 543 0 462 q 307 694 146 694 l 342 694 q 506 629 428 694 l 506 692 l 777 692 l 777 0 l 505 0 l 505 47 l 502 47 q 320 -18 424 -18 m 355 949 l 355 739 l 151 739 l 151 949 l 355 949 m 626 949 l 626 739 l 422 739 l 422 949 l 626 949 z "},"å":{"ha":814,"x_min":0,"x_max":777,"o":"m 288 334 q 301 237 288 272 q 399 180 326 180 q 426 183 413 183 q 513 339 513 200 q 494 456 510 441 q 407 499 494 490 l 391 499 q 342 491 371 499 q 288 355 288 455 l 288 334 m 320 -18 q 190 7 255 -18 q 0 353 0 102 l 0 361 q 46 543 0 462 q 307 694 146 694 l 342 694 q 506 629 428 694 l 506 692 l 777 692 l 777 0 l 505 0 l 505 47 l 502 47 q 320 -18 424 -18 m 389 746 q 245 806 304 746 q 185 949 185 865 q 245 1093 185 1034 q 389 1153 304 1153 q 532 1093 473 1153 q 592 949 592 1034 q 532 806 592 865 q 389 746 473 746 m 389 882 q 436 902 416 882 q 456 949 456 922 q 436 997 456 977 q 389 1017 416 1017 q 341 997 361 1017 q 321 949 321 977 q 341 902 321 922 q 389 882 361 882 z "},"æ":{"ha":1424,"x_min":0,"x_max":1403,"o":"m 288 334 q 301 237 288 272 q 399 180 326 180 q 426 183 413 183 q 513 339 513 200 q 494 456 510 441 q 407 499 494 490 l 391 499 q 342 491 371 499 q 288 355 288 455 l 288 334 m 901 427 l 1151 427 l 1151 429 q 1110 491 1151 458 q 1034 510 1073 510 q 901 427 924 510 m 777 70 l 777 0 l 505 0 l 505 47 l 502 47 q 320 -18 424 -18 q 190 7 255 -18 q 0 353 0 102 l 0 361 q 46 543 0 462 q 307 694 146 694 l 342 694 q 506 629 428 694 l 506 692 l 777 692 l 777 624 q 1026 715 880 712 q 1390 419 1312 715 q 1403 280 1403 363 l 1403 267 l 904 267 l 904 264 q 969 186 926 208 q 1045 165 1009 165 l 1055 165 q 1145 220 1102 165 l 1390 220 l 1390 217 q 1048 -20 1255 -20 q 777 70 877 -20 z "},"ç":{"ha":746,"x_min":0,"x_max":747,"o":"m 240 4 q 43 176 122 52 q 0 345 0 261 l 0 355 q 170 659 0 538 q 399 726 277 726 l 431 726 q 742 568 627 726 q 557 439 734 557 q 414 513 502 513 q 267 395 310 513 l 264 363 l 264 339 q 371 194 264 239 q 406 189 391 189 l 429 189 q 566 261 496 189 q 747 138 736 149 q 541 -9 660 27 q 461 -22 498 -18 q 509 -170 509 -84 q 238 -271 509 -271 l 238 -136 q 238 0 374 -136 l 240 4 z "},"è":{"ha":814,"x_min":34,"x_max":788,"o":"m 286 427 l 536 427 l 536 429 q 495 491 536 458 q 419 510 458 510 q 286 427 309 510 m 411 715 q 774 419 696 715 q 788 280 788 363 l 788 267 l 289 267 l 289 264 q 354 186 311 208 q 430 165 394 165 l 439 165 q 530 220 487 165 l 774 220 l 774 217 q 433 -20 640 -20 q 137 94 240 -20 q 34 343 34 208 q 142 606 34 500 q 411 715 251 712 m 321 746 l 185 1017 l 456 1017 l 524 746 l 321 746 z "},"é":{"ha":814,"x_min":34,"x_max":788,"o":"m 286 427 l 536 427 l 536 429 q 495 491 536 458 q 419 510 458 510 q 286 427 309 510 m 411 715 q 774 419 696 715 q 788 280 788 363 l 788 267 l 289 267 l 289 264 q 354 186 311 208 q 430 165 394 165 l 439 165 q 530 220 487 165 l 774 220 l 774 217 q 433 -20 640 -20 q 137 94 240 -20 q 34 343 34 208 q 142 606 34 500 q 411 715 251 712 m 501 746 l 298 746 l 366 1017 l 637 1017 l 501 746 z "},"ê":{"ha":814,"x_min":34,"x_max":788,"o":"m 286 427 l 536 427 l 536 429 q 495 491 536 458 q 419 510 458 510 q 286 427 309 510 m 411 715 q 774 419 696 715 q 788 280 788 363 l 788 267 l 289 267 l 289 264 q 354 186 311 208 q 430 165 394 165 l 439 165 q 530 220 487 165 l 774 220 l 774 217 q 433 -20 640 -20 q 137 94 240 -20 q 34 343 34 208 q 142 606 34 500 q 411 715 251 712 m 547 1017 l 682 746 l 479 746 l 411 814 l 343 746 l 140 746 l 275 1017 l 547 1017 z "},"ë":{"ha":814,"x_min":34,"x_max":788,"o":"m 286 427 l 536 427 l 536 429 q 495 491 536 458 q 419 510 458 510 q 286 427 309 510 m 411 715 q 774 419 696 715 q 788 280 788 363 l 788 267 l 289 267 l 289 264 q 354 186 311 208 q 430 165 394 165 l 439 165 q 530 220 487 165 l 774 220 l 774 217 q 433 -20 640 -20 q 137 94 240 -20 q 34 343 34 208 q 142 606 34 500 q 411 715 251 712 m 377 949 l 377 739 l 174 739 l 174 949 l 377 949 m 648 949 l 648 739 l 445 739 l 445 949 l 648 949 z "},"ì":{"ha":339,"x_min":-56,"x_max":305,"o":"m 305 692 l 305 0 l 34 0 l 34 692 l 305 692 m 79 746 l -56 1017 l 215 1017 l 283 746 l 79 746 z "},"í":{"ha":339,"x_min":34,"x_max":395,"o":"m 305 692 l 305 0 l 34 0 l 34 692 l 305 692 m 260 746 l 56 746 l 124 1017 l 395 1017 l 260 746 z "},"î":{"ha":339,"x_min":-102,"x_max":441,"o":"m 305 692 l 305 0 l 34 0 l 34 692 l 305 692 m 305 1017 l 441 746 l 237 746 l 170 814 l 102 746 l -102 746 l 34 1017 l 305 1017 z "},"ï":{"ha":339,"x_min":-68,"x_max":407,"o":"m 305 692 l 305 0 l 34 0 l 34 692 l 305 692 m 136 949 l 136 739 l -68 739 l -68 949 l 136 949 m 407 949 l 407 739 l 203 739 l 203 949 l 407 949 z "},"ð":{"ha":814,"x_min":35,"x_max":814,"o":"m 407 437 q 383 437 407 437 q 336 404 359 437 q 306 316 306 363 l 306 288 q 336 199 306 241 q 407 167 359 167 q 479 199 456 167 q 509 288 509 241 l 509 316 q 479 404 509 363 q 407 437 456 437 m 780 298 q 606 5 779 90 q 416 -27 511 -27 l 399 -27 q 209 5 304 -27 q 35 302 35 90 q 209 598 35 513 q 399 631 304 631 l 416 631 q 509 623 463 631 l 509 655 q 508 669 509 662 l 420 646 l 385 777 l 428 788 q 323 850 378 827 l 583 980 q 695 859 651 922 l 779 882 l 814 751 l 758 736 q 780 601 780 671 l 780 298 z "},"ñ":{"ha":788,"x_min":34,"x_max":755,"o":"m 755 0 l 500 0 l 500 361 q 430 486 500 462 q 406 488 415 488 l 389 488 q 294 404 317 488 q 292 380 292 394 l 292 0 l 34 0 l 34 692 l 292 692 l 292 605 q 500 716 384 716 l 519 716 q 745 548 687 716 q 755 456 755 497 l 755 0 m 158 987 q 395 987 311 1055 q 631 987 479 920 l 631 784 q 395 784 479 716 q 158 784 311 852 l 158 987 z "},"ò":{"ha":814,"x_min":7,"x_max":810,"o":"m 414 728 q 758 544 627 728 q 810 368 810 451 l 810 330 q 677 61 810 182 q 406 -34 559 -34 q 64 145 190 -34 q 7 340 7 235 l 7 351 q 208 680 7 557 q 414 728 303 728 m 297 362 l 297 327 q 376 186 297 203 l 414 183 q 506 240 486 183 q 522 349 522 289 q 411 511 522 511 l 403 511 q 313 452 337 511 q 297 362 297 412 m 318 746 l 182 1017 l 454 1017 l 522 746 l 318 746 z "},"ó":{"ha":814,"x_min":7,"x_max":810,"o":"m 414 728 q 758 544 627 728 q 810 368 810 451 l 810 330 q 677 61 810 182 q 406 -34 559 -34 q 64 145 190 -34 q 7 340 7 235 l 7 351 q 208 680 7 557 q 414 728 303 728 m 297 362 l 297 327 q 376 186 297 203 l 414 183 q 506 240 486 183 q 522 349 522 289 q 411 511 522 511 l 403 511 q 313 452 337 511 q 297 362 297 412 m 498 746 l 295 746 l 363 1017 l 634 1017 l 498 746 z "},"ô":{"ha":814,"x_min":7,"x_max":810,"o":"m 414 728 q 758 544 627 728 q 810 368 810 451 l 810 330 q 677 61 810 182 q 406 -34 559 -34 q 64 145 190 -34 q 7 340 7 235 l 7 351 q 208 680 7 557 q 414 728 303 728 m 297 362 l 297 327 q 376 186 297 203 l 414 183 q 506 240 486 183 q 522 349 522 289 q 411 511 522 511 l 403 511 q 313 452 337 511 q 297 362 297 412 m 544 1017 l 680 746 l 476 746 l 408 814 l 340 746 l 137 746 l 273 1017 l 544 1017 z "},"õ":{"ha":814,"x_min":7,"x_max":810,"o":"m 414 728 q 758 544 627 728 q 810 368 810 451 l 810 330 q 677 61 810 182 q 406 -34 559 -34 q 64 145 190 -34 q 7 340 7 235 l 7 351 q 208 680 7 557 q 414 728 303 728 m 297 362 l 297 327 q 376 186 297 203 l 414 183 q 506 240 486 183 q 522 349 522 289 q 411 511 522 511 l 403 511 q 313 452 337 511 q 297 362 297 412 m 172 987 q 408 987 324 1055 q 645 987 493 920 l 645 784 q 408 784 493 716 q 172 784 324 852 l 172 987 z "},"ö":{"ha":814,"x_min":7,"x_max":810,"o":"m 414 728 q 758 544 627 728 q 810 368 810 451 l 810 330 q 677 61 810 182 q 406 -34 559 -34 q 64 145 190 -34 q 7 340 7 235 l 7 351 q 208 680 7 557 q 414 728 303 728 m 297 362 l 297 327 q 376 186 297 203 l 414 183 q 506 240 486 183 q 522 349 522 289 q 411 511 522 511 l 403 511 q 313 452 337 511 q 297 362 297 412 m 374 983 l 374 773 l 171 773 l 171 983 l 374 983 m 646 983 l 646 773 l 442 773 l 442 983 l 646 983 z "},"÷":{"ha":814,"x_min":-47,"x_max":861,"o":"m -47 0 l 563 949 l 861 949 l 251 0 l -47 0 z "},"ø":{"ha":814,"x_min":7,"x_max":810,"o":"m 468 496 q 411 511 445 511 l 403 511 q 313 452 337 511 q 297 362 297 412 l 297 326 l 468 496 m 356 192 q 376 186 366 188 l 414 183 q 506 240 486 183 q 522 349 522 289 l 522 358 l 356 192 m 414 728 q 758 544 627 728 q 810 368 810 451 l 810 330 q 677 61 810 182 q 406 -34 559 -34 q 64 145 190 -34 q 7 340 7 235 l 7 351 q 208 680 7 557 q 414 728 303 728 z "},"ù":{"ha":788,"x_min":34,"x_max":755,"o":"m 34 692 l 289 692 l 289 335 q 359 210 289 234 q 384 208 374 208 l 400 208 q 495 292 472 208 q 498 316 498 302 l 498 692 l 755 692 l 755 -4 l 498 -4 l 498 91 q 289 -20 406 -20 l 270 -20 q 45 148 102 -20 q 34 240 34 199 l 34 692 m 304 746 l 169 1017 l 440 1017 l 508 746 l 304 746 z "},"ú":{"ha":788,"x_min":34,"x_max":755,"o":"m 34 692 l 289 692 l 289 335 q 359 210 289 234 q 384 208 374 208 l 400 208 q 495 292 472 208 q 498 316 498 302 l 498 692 l 755 692 l 755 -4 l 498 -4 l 498 91 q 289 -20 406 -20 l 270 -20 q 45 148 102 -20 q 34 240 34 199 l 34 692 m 485 746 l 281 746 l 349 1017 l 621 1017 l 485 746 z "},"û":{"ha":788,"x_min":34,"x_max":755,"o":"m 34 692 l 289 692 l 289 335 q 359 210 289 234 q 384 208 374 208 l 400 208 q 495 292 472 208 q 498 316 498 302 l 498 692 l 755 692 l 755 -4 l 498 -4 l 498 91 q 289 -20 406 -20 l 270 -20 q 45 148 102 -20 q 34 240 34 199 l 34 692 m 530 1017 l 666 746 l 463 746 l 395 814 l 327 746 l 123 746 l 259 1017 l 530 1017 z "},"ü":{"ha":788,"x_min":34,"x_max":755,"o":"m 34 692 l 289 692 l 289 335 q 359 210 289 234 q 384 208 374 208 l 400 208 q 495 292 472 208 q 498 316 498 302 l 498 692 l 755 692 l 755 -4 l 498 -4 l 498 91 q 289 -20 406 -20 l 270 -20 q 45 148 102 -20 q 34 240 34 199 l 34 692 m 361 949 l 361 739 l 157 739 l 157 949 l 361 949 m 632 949 l 632 739 l 429 739 l 429 949 l 632 949 z "},"ý":{"ha":814,"x_min":0,"x_max":814,"o":"m 283 12 l 0 692 l 301 692 l 407 339 l 518 692 l 814 692 l 605 118 q 307 -218 514 -134 q 171 -251 233 -244 l 102 -251 l 102 -64 q 250 -24 214 -57 q 283 12 269 -7 m 497 746 l 294 746 l 361 1017 l 633 1017 l 497 746 z "},"þ":{"ha":814,"x_min":34,"x_max":811,"o":"m 491 -18 q 309 47 387 -18 l 307 47 l 307 -203 l 35 -203 l 34 949 l 305 949 l 305 629 q 469 694 383 694 l 505 694 q 765 543 665 694 q 811 361 811 462 l 811 353 q 621 7 811 102 q 491 -18 556 -18 m 524 334 l 524 355 q 469 491 524 455 q 420 499 440 499 l 404 499 q 317 456 317 490 q 298 339 301 441 q 385 183 298 200 q 412 180 398 183 q 510 237 486 180 q 524 334 524 272 z "},"ÿ":{"ha":814,"x_min":0,"x_max":814,"o":"m 283 12 l 0 692 l 301 692 l 407 339 l 518 692 l 814 692 l 605 118 q 307 -218 514 -134 q 171 -251 233 -244 l 102 -251 l 102 -64 q 250 -24 214 -57 q 283 12 269 -7 m 373 949 l 373 739 l 170 739 l 170 949 l 373 949 m 644 949 l 644 739 l 441 739 l 441 949 l 644 949 z "},"ı":{"ha":339,"x_min":34,"x_max":305,"o":"m 305 692 l 305 0 l 34 0 l 34 692 l 305 692 z "},"ˆ":{"ha":610,"x_min":34,"x_max":576,"o":"m 441 949 l 576 678 l 373 678 l 305 746 l 237 678 l 34 678 l 170 949 l 441 949 z "},"ˇ":{"ha":610,"x_min":34,"x_max":576,"o":"m 441 678 l 170 678 l 34 949 l 237 949 l 305 882 l 373 949 l 576 949 l 441 678 z "},"˙":{"ha":339,"x_min":34,"x_max":305,"o":"m 305 1004 l 305 814 l 34 814 l 34 1004 l 305 1004 z "},"˚":{"ha":407,"x_min":0,"x_max":407,"o":"m 203 543 q 60 602 119 543 q 0 746 0 662 q 60 890 0 830 q 203 949 119 949 q 347 890 288 949 q 407 746 407 830 q 347 602 407 662 q 203 543 288 543 m 203 678 q 251 698 231 678 q 271 746 271 718 q 251 794 271 774 q 203 814 231 814 q 156 794 176 814 q 136 746 136 774 q 156 698 136 718 q 203 678 176 678 z "},"˛":{"ha":271,"x_min":0,"x_max":271,"o":"m 203 136 l 271 0 q 271 -136 136 -136 l 271 -271 q 0 -170 0 -271 q 68 0 0 -68 l 0 136 l 203 136 z "},"˜":{"ha":543,"x_min":34,"x_max":507,"o":"m 34 920 q 271 920 186 987 q 507 920 355 852 l 507 716 q 271 716 355 648 q 34 716 186 784 l 34 920 z "},"˝":{"ha":678,"x_min":34,"x_max":644,"o":"m 237 678 l 34 678 l 102 949 l 373 949 l 237 678 m 509 678 l 305 678 l 373 949 l 644 949 l 509 678 z "},"–":{"ha":694,"x_min":27,"x_max":570,"o":"m 27 461 l 570 461 l 570 233 l 27 233 l 27 461 z "},"—":{"ha":1389,"x_min":54,"x_max":1139,"o":"m 54 461 l 1139 461 l 1139 233 l 54 233 l 54 461 z "},"‘":{"ha":339,"x_min":34,"x_max":305,"o":"m 237 814 l 305 814 l 305 624 l 34 624 l 34 814 q 305 949 34 949 l 305 882 q 237 814 237 882 z "},"’":{"ha":339,"x_min":34,"x_max":305,"o":"m 102 760 l 34 760 l 34 949 l 305 949 l 305 760 q 34 624 305 624 l 34 692 q 102 760 102 692 z "},"‚":{"ha":339,"x_min":34,"x_max":305,"o":"m 102 0 l 34 0 l 34 190 l 305 190 l 305 0 q 34 -136 305 -136 l 34 -68 q 102 0 102 -68 z "},"“":{"ha":678,"x_min":34,"x_max":644,"o":"m 237 814 l 305 814 l 305 624 l 34 624 l 34 814 q 305 949 34 949 l 305 882 q 237 814 237 882 m 576 814 l 644 814 l 644 624 l 373 624 l 373 814 q 644 949 373 949 l 644 882 q 576 814 576 882 z "},"”":{"ha":678,"x_min":34,"x_max":644,"o":"m 441 760 l 373 760 l 373 949 l 644 949 l 644 760 q 373 624 644 624 l 373 692 q 441 760 441 692 m 102 760 l 34 760 l 34 949 l 305 949 l 305 760 q 34 624 305 624 l 34 692 q 102 760 102 692 z "},"„":{"ha":678,"x_min":34,"x_max":644,"o":"m 441 0 l 373 0 l 373 190 l 644 190 l 644 0 q 373 -136 644 -136 l 373 -68 q 441 0 441 -68 m 102 0 l 34 0 l 34 190 l 305 190 l 305 0 q 34 -136 305 -136 l 34 -68 q 102 0 102 -68 z "},"€":{"ha":1085,"x_min":0,"x_max":1076,"o":"m 94 644 q 301 901 145 795 q 581 979 428 979 q 952 822 784 979 q 1076 576 1053 707 l 803 576 q 678 716 774 661 q 572 741 628 741 q 386 644 454 741 l 678 644 l 678 509 l 337 509 q 336 486 336 497 l 336 483 q 340 441 336 461 l 678 441 l 678 305 l 408 305 q 450 269 427 286 q 567 233 507 233 l 589 233 q 793 373 724 233 l 1071 373 q 814 46 1027 178 q 575 -14 705 -14 q 176 179 345 -14 q 102 305 129 239 l 0 305 l 0 441 l 70 441 q 68 483 68 462 q 68 509 68 496 l 0 509 l 0 644 l 94 644 z "},"™":{"ha":865,"x_min":34,"x_max":836,"o":"m 339 882 l 248 882 l 248 593 l 125 593 l 125 882 l 34 882 l 34 972 l 339 972 l 339 969 q 341 971 339 971 l 524 971 q 559 846 528 971 q 587 749 566 829 l 589 749 l 649 971 l 836 971 l 836 593 l 712 593 l 712 835 q 692 770 709 835 q 637 593 689 764 l 541 593 q 518 661 537 593 l 465 835 l 463 835 l 463 593 l 339 593 l 339 882 z "},"":{"ha":882,"x_min":34,"x_max":848,"o":"m 848 692 l 848 0 l 576 0 l 576 692 l 848 692 m 577 760 q 400 712 427 749 q 374 628 374 675 l 374 590 l 509 590 l 509 399 l 374 399 l 374 0 l 102 0 l 102 399 l 34 399 l 34 590 l 102 590 q 247 892 108 828 q 576 949 385 956 l 848 949 l 848 760 l 577 760 z "},"":{"ha":882,"x_min":34,"x_max":848,"o":"m 848 0 l 576 0 l 576 760 q 400 712 427 749 q 374 628 374 675 l 374 590 l 509 590 l 509 399 l 374 399 l 374 0 l 102 0 l 102 399 l 34 399 l 34 590 l 102 590 q 247 892 108 828 q 576 949 385 956 l 848 949 l 848 0 z "}}}
